<?xml version="1.0"?>
<svg xmlns="http://www.w3.org/2000/svg" xmlns:xlink="http://www.w3.org/1999/xlink" xmlns:svgjs="http://svgjs.com/svgjs" version="1.1" width="512" height="512" x="0" y="0" viewBox="0 0 24 24" style="enable-background:new 0 0 512 512" xml:space="preserve"><g><path xmlns="http://www.w3.org/2000/svg" d="m23.5 24h-23c-.276 0-.5-.224-.5-.5s.224-.5.5-.5h23c.276 0 .5.224.5.5s-.224.5-.5.5z" fill="#212121" data-original="#000000" style=""/><path xmlns="http://www.w3.org/2000/svg" d="m6.5 24h-5c-.276 0-.5-.224-.5-.5v-5.5c0-.551.449-1 1-1h4c.551 0 1 .449 1 1v5.5c0 .276-.224.5-.5.5zm-4.5-1h4v-5h-4z" fill="#212121" data-original="#000000" style=""/><path xmlns="http://www.w3.org/2000/svg" d="m14.5 24h-5c-.276 0-.5-.224-.5-.5v-11.5c0-.551.449-1 1-1h4c.551 0 1 .449 1 1v11.5c0 .276-.224.5-.5.5zm-4.5-1h4v-11h-4z" fill="#212121" data-original="#000000" style=""/><path xmlns="http://www.w3.org/2000/svg" d="m22.5 24h-5c-.276 0-.5-.224-.5-.5v-17.5c0-.551.449-1 1-1h4c.551 0 1 .449 1 1v17.5c0 .276-.224.5-.5.5zm-4.5-1h4v-17h-4z" fill="#212121" data-original="#000000" style=""/><path xmlns="http://www.w3.org/2000/svg" d="m2.5 11c-.128 0-.256-.049-.354-.146-.195-.195-.195-.512 0-.707l9-9c.195-.195.512-.195.707 0s.195.512 0 .707l-9 9c-.097.097-.225.146-.353.146z" fill="#212121" data-original="#000000" style=""/><path xmlns="http://www.w3.org/2000/svg" d="m11.5 6c-.276 0-.5-.224-.5-.5v-3.5h-3.5c-.276 0-.5-.224-.5-.5s.224-.5.5-.5h4c.276 0 .5.224.5.5v4c0 .276-.224.5-.5.5z" fill="#212121" data-original="#000000" style=""/></g></svg>
